<?xml version="1.0" encoding="UTF-8" standalone="no"?>
<svg
   xmlns:dc="http://purl.org/dc/elements/1.1/"
   xmlns:cc="http://creativecommons.org/ns#"
   xmlns:rdf="http://www.w3.org/1999/02/22-rdf-syntax-ns#"
   xmlns:svg="http://www.w3.org/2000/svg"
   xmlns="http://www.w3.org/2000/svg"
   xmlns:sodipodi="http://sodipodi.sourceforge.net/DTD/sodipodi-0.dtd"
   xmlns:inkscape="http://www.inkscape.org/namespaces/inkscape"
   width="24"
   height="24"
   viewBox="0 0 24 24"
   version="1.1"
   id="svg6"
   sodipodi:docname="AvatarProfile.svg"
   inkscape:version="0.92.2 2405546, 2018-03-11">
  <metadata
     id="metadata12">
    <rdf:RDF>
      <cc:Work
         rdf:about="">
        <dc:format>image/svg+xml</dc:format>
        <dc:type
           rdf:resource="http://purl.org/dc/dcmitype/StillImage" />
      </cc:Work>
    </rdf:RDF>
  </metadata>
  <defs
     id="defs10" />
  <sodipodi:namedview
     pagecolor="#ffffff"
     bordercolor="#666666"
     borderopacity="1"
     objecttolerance="10"
     gridtolerance="10"
     guidetolerance="10"
     inkscape:pageopacity="0"
     inkscape:pageshadow="2"
     inkscape:window-width="1600"
     inkscape:window-height="836"
     id="namedview8"
     showgrid="false"
     inkscape:zoom="9.8333333"
     inkscape:cx="12"
     inkscape:cy="12"
     inkscape:window-x="0"
     inkscape:window-y="30"
     inkscape:window-maximized="1"
     inkscape:current-layer="svg6" />
  <path
     d="M0 0h24v24H0z"
     fill="none"
     id="path2" />
  <path
     d="M12 2C6.48 2 2 6.48 2 12s4.48 10 10 10 10-4.48 10-10S17.52 2 12 2zm1 17h-2v-2h2v2zm2.07-7.75l-.9.92C13.45 12.9 13 13.5 13 15h-2v-.5c0-1.1.45-2.1 1.17-2.83l1.24-1.26c.37-.36.59-.86.59-1.41 0-1.1-.9-2-2-2s-2 .9-2 2H8c0-2.21 1.79-4 4-4s4 1.79 4 4c0 .88-.36 1.68-.93 2.25z"
     id="path4"
     style="fill:#455fcf;fill-opacity:1" />
  <path
     style="fill:#ffffff;fill-opacity:1;stroke-width:0.10169491"
     d="m 11.045823,14.384746 c 0.165381,-1.438253 0.435489,-1.948138 1.737857,-3.280563 0.990577,-1.013438 1.261862,-1.4675367 1.258154,-2.1060014 -0.0068,-1.1740644 -1.204233,-2.2030784 -2.340276,-2.0111451 -0.858716,0.1450792 -1.7252868,1.0292489 -1.7252868,1.7603253 0,0.2130082 -0.04024,0.2221297 -0.9799245,0.2221297 H 8.0164222 L 8.0771971,8.5260906 C 8.3819243,6.3028629 10.496192,4.7214941 12.645763,5.1090272 c 2.477676,0.4466851 3.983249,3.0694092 2.99411,5.2157708 -0.145047,0.314741 -0.607439,0.914121 -1.151122,1.492151 -1.220534,1.297642 -1.357794,1.540225 -1.510478,2.669492 l -0.06531,0.483051 h -0.967188 -0.967188 z"
     id="path4528"
     inkscape:connector-curvature="0" />
  <path
     style="fill:#ffffff;fill-opacity:1;stroke-width:0.10169491"
     d="M 10.99322,17.969492 V 17.00339 h 0.966102 0.966102 v 0.966102 0.966101 H 11.959322 10.99322 Z"
     id="path4530"
     inkscape:connector-curvature="0" />
</svg>
