<svg class="tp-margin-right--half" xmlns="http://www.w3.org/2000/svg" width="18" height="18" viewBox="0 0 18 18" fill="currentColor" style="
    display:  inline-block;
    margin-top: 1;
"><path d="M3.002 7.25c0 3.248 4.342 7.756 5.23 8.825l.769.925.769-.926c.888-1.068 5.234-5.553 5.234-8.824C15.004 4.145 13 1 9.001 1c-3.999 0-6 3.145-6 6.25zm1.993 0C4.995 5.135 6.176 3 9.001 3s4.002 2.135 4.002 4.25c0 1.777-2.177 4.248-4.002 6.59C7.1 11.4 4.995 9.021 4.995 7.25zM8.91 5.5c-.827 0-1.5.673-1.5 1.5s.673 1.5 1.5 1.5 1.5-.673 1.5-1.5-.673-1.5-1.5-1.5"></path></svg>